<mxfile host="65bd71144e" modified="2021-02-25T09:00:37.083Z" agent="5.0 (Windows NT 10.0; Win64; x64) AppleWebKit/537.36 (KHTML, like Gecko) Code/1.53.2 Chrome/87.0.4280.141 Electron/11.2.1 Safari/537.36" version="14.2.4" etag="qj9TnpFf6mND2CHrjljz" type="embed">
    <diagram id="RJC99PvxAYJV8UOK-OhZ" name="Page-1">
        <mxGraphModel dx="749" dy="574" grid="1" gridSize="10" guides="1" tooltips="1" connect="1" arrows="1" fold="1" page="1" pageScale="1" pageWidth="850" pageHeight="1100" math="0" shadow="0">
            <root>
                <mxCell id="0"/>
                <mxCell id="1" parent="0"/>
                <mxCell id="2" value="" style="rounded=0;whiteSpace=wrap;html=1;fillColor=#f5f5f5;fontColor=#333333;strokeColor=none;verticalAlign=top;" vertex="1" parent="1">
                    <mxGeometry x="10" y="10" width="860" height="570" as="geometry"/>
                </mxCell>
                <mxCell id="28" value="" style="line;strokeWidth=2;direction=south;html=1;labelBackgroundColor=none;fontSize=13;fontColor=#000000;strokeColor=#000000;" vertex="1" parent="1">
                    <mxGeometry x="230" y="40" width="10" height="370" as="geometry"/>
                </mxCell>
                <mxCell id="6" value="request&lt;br style=&quot;font-size: 15px;&quot;&gt;AudioFocus" style="edgeStyle=orthogonalEdgeStyle;rounded=0;orthogonalLoop=1;jettySize=auto;html=1;exitX=1;exitY=0.5;exitDx=0;exitDy=0;entryX=0;entryY=0.5;entryDx=0;entryDy=0;strokeColor=#000000;labelBackgroundColor=none;fontColor=#000000;fontSize=15;" edge="1" parent="1" source="3" target="4">
                    <mxGeometry x="-0.1429" y="-15" relative="1" as="geometry">
                        <mxPoint as="offset"/>
                    </mxGeometry>
                </mxCell>
                <mxCell id="3" value="AudioManager" style="text;html=1;fillColor=#1ba1e2;align=center;verticalAlign=middle;whiteSpace=wrap;rounded=0;fontColor=#ffffff;fontSize=15;" vertex="1" parent="1">
                    <mxGeometry x="40" y="190" width="140" height="70" as="geometry"/>
                </mxCell>
                <mxCell id="4" value="AudioService" style="text;html=1;fillColor=#0050ef;align=center;verticalAlign=top;whiteSpace=wrap;rounded=0;fontColor=#ffffff;fontSize=16;" vertex="1" parent="1">
                    <mxGeometry x="320" y="20" width="480" height="410" as="geometry"/>
                </mxCell>
                <mxCell id="7" value="MediaFocusControl" style="rounded=0;whiteSpace=wrap;html=1;fillColor=#f0a30a;verticalAlign=top;fontSize=17;strokeColor=none;fontColor=#000000;" vertex="1" parent="1">
                    <mxGeometry x="370" y="80" width="370" height="290" as="geometry"/>
                </mxCell>
                <mxCell id="8" value="FocusStack" style="shape=partialRectangle;whiteSpace=wrap;html=1;bottom=1;right=1;left=1;top=0;fillColor=none;routingCenterX=-0.5;fontSize=17;fontColor=#000000;strokeColor=#000000;verticalAlign=top;" vertex="1" parent="1">
                    <mxGeometry x="380" y="165" width="100" height="120" as="geometry"/>
                </mxCell>
                <mxCell id="15" value="Focus&lt;br&gt;Requester" style="rounded=1;whiteSpace=wrap;html=1;fontSize=13;fontColor=#ffffff;fillColor=#6d8764;strokeColor=none;" vertex="1" parent="1">
                    <mxGeometry x="390" y="205" width="80" height="40" as="geometry"/>
                </mxCell>
                <mxCell id="31" style="edgeStyle=orthogonalEdgeStyle;rounded=0;orthogonalLoop=1;jettySize=auto;html=1;exitX=0.5;exitY=1;exitDx=0;exitDy=0;labelBackgroundColor=none;strokeColor=#000000;fontSize=15;fontColor=#000000;" edge="1" parent="1" source="16" target="29">
                    <mxGeometry relative="1" as="geometry"/>
                </mxCell>
                <mxCell id="16" value="PlaybackActivity&lt;br style=&quot;font-size: 15px;&quot;&gt;Monitor" style="rounded=0;whiteSpace=wrap;html=1;fontSize=15;fontColor=#ffffff;fillColor=#76608a;strokeColor=none;verticalAlign=top;" vertex="1" parent="1">
                    <mxGeometry x="570" y="140" width="130" height="170" as="geometry"/>
                </mxCell>
                <mxCell id="19" value="Ducking&lt;br&gt;Manager" style="shape=ext;double=1;rounded=0;whiteSpace=wrap;html=1;labelBackgroundColor=none;fontSize=15;fontColor=#ffffff;fillColor=#6d8764;strokeColor=none;" vertex="1" parent="1">
                    <mxGeometry x="580" y="240" width="110" height="50" as="geometry"/>
                </mxCell>
                <mxCell id="24" value="handleFocus&lt;br&gt;Loss" style="endArrow=classic;html=1;labelBackgroundColor=none;strokeColor=#000000;fontSize=13;fontColor=#000000;exitX=1;exitY=0.5;exitDx=0;exitDy=0;entryX=0;entryY=0.5;entryDx=0;entryDy=0;" edge="1" parent="1">
                    <mxGeometry x="-0.02" y="25" width="50" height="50" relative="1" as="geometry">
                        <mxPoint x="471" y="225" as="sourcePoint"/>
                        <mxPoint x="571" y="225" as="targetPoint"/>
                        <mxPoint as="offset"/>
                    </mxGeometry>
                </mxCell>
                <mxCell id="32" style="edgeStyle=orthogonalEdgeStyle;rounded=0;orthogonalLoop=1;jettySize=auto;html=1;exitX=1;exitY=0.5;exitDx=0;exitDy=0;entryX=0;entryY=0.5;entryDx=0;entryDy=0;labelBackgroundColor=none;strokeColor=#000000;fontSize=15;fontColor=#000000;" edge="1" parent="1" source="29" target="30">
                    <mxGeometry relative="1" as="geometry"/>
                </mxCell>
                <mxCell id="29" value="AudioPlaybackConfiguration" style="shape=ext;double=1;rounded=0;whiteSpace=wrap;html=1;labelBackgroundColor=none;fontSize=15;fillColor=#e3c800;strokeColor=none;fontColor=#000000;" vertex="1" parent="1">
                    <mxGeometry x="320" y="470" width="260" height="80" as="geometry"/>
                </mxCell>
                <mxCell id="30" value="PlayerProxy" style="shape=ext;double=1;rounded=0;whiteSpace=wrap;html=1;labelBackgroundColor=none;fontSize=15;fillColor=#e3c800;strokeColor=none;fontColor=#000000;" vertex="1" parent="1">
                    <mxGeometry x="650" y="470" width="150" height="80" as="geometry"/>
                </mxCell>
            </root>
        </mxGraphModel>
    </diagram>
</mxfile>